<?xml version="1.0" standalone="no"?>
<!DOCTYPE svg PUBLIC "-//W3C//DTD SVG 1.1//EN" "http://www.w3.org/Graphics/SVG/1.1/DTD/svg11.dtd">
<svg xmlns="http://www.w3.org/2000/svg">
<metadata>Generated by Fontastic.me</metadata>
<defs>
<font id="ain-tribely" horiz-adv-x="512">
<font-face font-family="ain-tribely" units-per-em="512" ascent="480" descent="-32"/>
<missing-glyph horiz-adv-x="512" />

<glyph glyph-name="email" unicode="&#100;" d="M440 174c-2-3-6-5-9-5-2 0-4 1-6 2l-73 41c-5 3-7 9-4 14 3 5 9 7 14 4l74-41c5-3 7-10 4-15m-188 36c-2 0-4 1-6 2l-178 113c-5 3-6 10-3 15 3 4 9 6 14 3l173-110 173 110c5 3 11 1 14-3 4-5 2-12-3-15l-178-113c-2-1-4-2-6-2m-100 2l-73-41c-2-1-4-2-5-2-4 0-8 2-10 5-2 5-1 12 4 15l74 41c5 3 11 1 14-4 3-5 1-11-4-14m310 215l-420 0c-23 0-42-19-42-42l0-247c0-22 19-41 42-41l420 0c23 0 42 19 42 41l0 247c0 23-19 42-42 42"/>
<glyph glyph-name="refresh" unicode="&#101;" d="M426 283c0 0 1-1 1-2l28 2 53 0 0 204-72-75c-43 52-109 85-179 85-128 0-233-108-233-241 0-133 103-241 230-241 89 0 171 54 209 138l-53 26c-28-63-90-104-157-104-95 0-173 81-173 181 0 100 78 181 173 181 56 0 105-19 137-61l-89-93z"/>
<glyph glyph-name="facebook" unicode="&#102;" d="M432 497l-327 0c-43 0-80-31-80-74l0-327c0-43 37-81 80-81l203 0c-1 63 0 134-1 195-12 0-25 0-38 1 0 21 0 43 0 65 13 0 26 0 38 0 1 21 0 42 1 63 1 17 7 34 20 45 15 15 36 19 57 20 21 0 42 0 63 0 1-22 1-45 0-67-13 0-27 0-41 0-9 0-18-6-19-15 0-15 0-30 0-45 20 0 40 0 60 0-1-22-4-44-7-65-18-1-36-2-54-2 0-61 1-132 0-195l45 0c43 0 75 38 75 81l0 327c0 43-32 74-75 74"/>
<glyph glyph-name="mobile-number" unicode="&#103;" d="M382 239l-241 0 0 187 241 0z m-48-70l-25 0 0 23 25 0z m0-47l-25 0 0 24 25 0z m0-47l-25 0 0 24 25 0z m-61 94l-24 0 0 23 24 0z m0-47l-24 0 0 24 24 0z m0-47l-24 0 0 24 24 0z m-60 94l-24 0 0 23 24 0z m0-47l-24 0 0 24 24 0z m0-47l-24 0 0 24 24 0z m-48 421l-24-1c-27-5-48-29-48-57l0-374c0-33 27-59 60-59l217 0c33 0 60 26 60 59l0 374c0 32-27 58-60 58z"/>
<glyph glyph-name="more" unicode="&#104;" d="M102 256c0-28-23-51-51-51-28 0-51 23-51 51 0 28 23 51 51 51 28 0 51-23 51-51z m205 0c0-28-23-51-51-51-28 0-51 23-51 51 0 28 23 51 51 51 28 0 51-23 51-51z m205 0c0-28-23-51-51-51-28 0-51 23-51 51 0 28 23 51 51 51 28 0 51-23 51-51z"/>
<glyph glyph-name="linkedin" unicode="&#113;" d="M13 349l97 0 0-314-97 0z m46 39l-1 0c-35 0-58 24-58 54 0 31 24 55 59 55 36 0 59-23 59-54 0-31-23-55-59-55z m441-353l-111 0 0 163c0 42-17 71-55 71-29 0-45-19-53-38-3-7-2-17-2-26l0-170-110 0c0 0 2 288 0 314l110 0 0-49c6 21 41 52 97 52 69 0 124-45 124-142z"/>
<glyph glyph-name="skype" unicode="&#114;" d="M480 211c4 16 6 33 6 50 0 129-105 234-234 234-14 0-27-2-40-4-21 13-46 21-72 21-75 0-136-61-136-136 0-25 7-48 19-68-3-15-5-31-5-47 0-129 105-234 234-234 15 0 29 1 43 4 19-10 41-16 64-16 75 0 136 60 136 135 0 22-6 42-15 61z m-108-62c-11-15-27-27-48-36-20-9-45-13-73-13-33 0-61 6-83 18-16 8-29 20-39 34-10 14-15 28-15 42 0 9 3 16 10 22 6 6 14 9 24 9 8 0 15-2 21-7 5-5 10-11 14-20 4-9 8-18 13-24 5-6 11-11 20-15 8-4 20-6 34-6 19 0 35 4 47 12 11 8 17 18 17 29 0 10-3 17-9 23-6 6-15 10-25 13-11 4-25 7-43 11-24 5-45 11-61 18-17 7-30 17-40 30-10 12-15 28-15 47 0 17 5 33 15 47 11 14 26 24 46 31 19 8 42 11 68 11 21 0 40-2 55-7 15-5 28-11 39-19 10-8 18-17 22-26 5-9 8-18 8-26 0-9-4-16-10-23-6-7-14-10-24-10-9 0-15 2-20 6-4 4-9 10-14 19-6 11-13 20-21 26-8 6-21 9-39 9-17 0-30-4-41-10-9-7-14-14-14-23 0-5 1-9 5-13 3-4 8-8 14-11 6-3 12-5 18-7 7-2 18-5 33-8 19-4 36-9 51-14 16-5 29-11 40-18 12-7 20-16 27-28 6-11 9-25 9-41 0-19-5-37-16-52z"/>
<glyph glyph-name="location" unicode="&#122;" d="M252 275c-39 0-71 33-71 72 0 40 32 72 71 72 39 0 70-32 70-72 0-39-31-72-70-72m0 237c-89 0-162-74-162-165 0-87 147-315 153-324 2-3 5-5 9-5 3 0 6 2 8 5 6 9 153 237 153 324 0 91-72 165-161 165"/>
<glyph glyph-name="twitter" unicode="&#65;" d="M502 433c-18-9-38-15-58-18 21 14 37 36 44 62-19-13-41-22-64-27-19 22-45 35-74 35-56 0-102-50-102-111 0-9 1-17 3-25-84 4-159 48-209 116-9-17-14-36-14-56 0-39 18-73 45-93-17 1-32 6-46 14l0-1c0-54 35-99 82-109-9-3-18-4-27-4-7 0-13 0-19 2 13-45 50-77 95-77-35-30-79-48-126-48-9 0-17 0-25 2 45-32 98-51 156-51 187 0 289 170 289 317 0 5 0 9-1 14 20 16 37 36 51 58"/>
<glyph glyph-name="checkbox-tick" unicode="&#98;" d="M222 98l260 259c16 17 16 44 0 61-17 16-44 16-61 0l-259-260c-17-16-17-44 0-60 16-17 44-17 60 0z m-188 128l128-128c16-17 44-17 60 0 17 16 17 44 0 60l-128 128c-16 17-44 17-60 0-17-16-17-44 0-60z"/>
<glyph glyph-name="message" unicode="&#99;" d="M486 294c0-78-63-142-141-142l-62 0c-3 0-7-1-9-4l-82-82 21-9 0 82c0 7-5 13-12 13l-21 0c-78 0-142 64-142 142 0 77 64 141 142 141l165 0c78 0 141-64 141-141z m26 0c0 92-75 167-167 167l-165 0c-92 0-167-75-167-167 0-92 75-168 167-168l21 0-13 13 0-82c0-12 14-17 22-9l82 82-9-4 62 0c92 0 167 76 167 168z"/>
<glyph glyph-name="s-close" unicode="&#106;" d="M53 392l333-334 33-33 66 66-33 33-333 334-33 32-66-65z m66-334l333 334 33 33-66 65-33-32-333-334-33-33 66-66z"/>
<glyph glyph-name="profile" unicode="&#108;" d="M445 26c-33 15-69 31-103 45l6-10 0 82-7-9c7 2 17 9 26 22 14 20 22 49 22 90l-10-10c20 0 34 23 36 50 3 29-9 52-35 52l0-10 10 0c0 0 9 18 11 23 11 29 15 55 8 82-23 92-242 92-265 0l12 7c-27 6-45 0-53-16-6-12-5-28 1-48 2-6 5-13 8-21 2-6 9-22 8-20 2-5 3-8 3-7l10 10c-26 0-38-23-36-52 2-27 16-50 36-50l-10 10c0-41 8-70 22-90 9-13 19-20 26-22l-7 9 0-82 6 10c-34-14-70-29-103-45l9-19c33 16 68 31 102 45 4 1 6 5 6 9l0 82c0 5-2 9-7 10-3 1-9 5-15 14-12 17-19 42-19 79 0 5-4 10-10 10-6 0-14 14-16 31-1 19 5 30 16 30 6 0 10 5 10 11 0 3-1 7-4 15 1-2-6 14-8 19-3 8-6 14-7 20-5 16-6 27-3 33 3 6 12 9 31 5 5-1 10 2 12 8 17 71 208 71 225 0 6-22 2-44-7-69 0 2-12-26-12-31 0-6 5-11 10-11 11 0 16-11 15-29-2-18-10-32-16-32-6 0-10-5-10-10 0-37-7-62-19-79-6-9-12-13-15-14-5-1-7-5-7-10l0-82c0-4 2-8 6-9 34-14 70-29 102-45z"/>
<glyph glyph-name="search" unicode="&#109;" d="M362 318c0-88-71-159-159-159-88 0-159 71-159 159 0 88 71 159 159 159 88 0 159-71 159-159z m35 0c0 107-87 194-194 194-107 0-194-87-194-194 0-107 87-194 194-194 107 0 194 87 194 194z m-83-154l150-150 25 25-150 150z"/>
<glyph glyph-name="play" unicode="&#110;" d="M493 237c18 9 18 35 0 44l-458 228c-16 9-35-3-35-21l0-458c0-18 19-30 35-22z"/>
<glyph glyph-name="l-close" unicode="&#111;" d="M83 41l384 383 26 26-52 52-26-26-383-384-26-25 52-52z m-51 383l409-409 52 52-410 409-25 26-52-52z"/>
<glyph glyph-name="company-information" unicode="&#115;" d="M172 53l0 341c0 5-4 9-10 9-5 0-9-4-9-9l0-341c0-5 4-9 9-9 6 0 10 4 10 9z m111 89l-121-81 10 0-146 97 4-8 0 341-15-7 147-98c3-2 7-2 10 0l146 98-10 0 146-98-4 8 0-106c0-5 4-9 9-9 5 0 9 4 9 9l0 106c0 3-1 6-4 8l-146 97c-3 2-7 2-10 0l-146-97 10 0-146 97c-6 4-15 0-15-8l0-341c0-3 2-6 4-7l147-98c3-2 7-2 10 0l122 81c4 3 5 9 2 13-3 5-8 6-13 3z m39 134l0 203c0 5-5 9-10 9-5 0-9-4-9-9l0-203c0-5 4-9 9-9 5 0 10 4 10 9z m111-109c0-13-10-23-23-23-13 0-23 10-23 23 0 12 10 23 23 23 13 0 23-11 23-23z m19 0c0 23-19 42-42 42-23 0-42-19-42-42 0-23 19-42 42-42 23 0 42 19 42 42z m30 0c0-13-8-33-22-58-5-9-11-18-17-27-9-13-18-27-28-39-3-5-6-9-9-12-1-2-2-4-3-5l15 0c-1 1-2 3-4 5-3 3-6 7-9 12-9 12-19 26-28 39-6 9-11 18-16 27-15 25-23 45-23 58 0 39 33 72 72 72 40 0 72-33 72-72z m19 0c0 50-41 90-91 90-50 0-90-40-90-90 0-17 9-40 25-68 5-8 11-18 17-27 9-14 18-28 28-40 3-5 7-9 9-13 2-2 3-3 4-4 4-5 11-5 15 0 0 1 1 2 3 4 3 4 6 8 9 13 10 12 20 26 29 40 6 9 12 19 17 27 16 28 25 51 25 68z"/>
<glyph glyph-name="pitch-deal" unicode="&#116;" d="M79 210l41-40c3-4 9-4 12 0 3 3 3 9 0 12l-41 40c-3 4-9 4-12 0-4-3-4-9 0-12z m44-26l-57-16 11-10 16 56-2-4 228 224-12 0 41-40 0 12-228-224z m5-16c1 0 3 1 4 2l228 224c3 3 3 9 0 12l-41 40c-3 4-9 4-12 0l-228-224c-1-1-2-2-2-4l-17-56c-2-6 4-12 11-10z m55-20l244 0c5 0 9 4 9 9 0 5-4 9-9 9l-244 0c-5 0-9-4-9-9 0-5 4-9 9-9z m81 70l163 0c5 0 9 4 9 9 0 5-4 9-9 9l-163 0c-5 0-9-4-9-9 0-5 4-9 9-9z m16 101l212 0-9 9 0-256 9 9-472 0 9-9 0 256-9-9 179 0c5 0 9 4 9 9 0 5-4 9-9 9l-179 0c-5 0-9-4-9-9l0-256c0-5 4-9 9-9l472 0c5 0 9 4 9 9l0 256c0 5-4 9-9 9l-212 0c-4 0-8-4-8-9 0-5 4-9 8-9z m-46 43l40-40c4-4 9-4 13 0 3 3 3 9 0 12l-41 40c-4 4-9 4-13 0-3-3-3-9 1-12z m-45 0l65 64-12 0 26-28c4-3 9-3 13 0 3 4 3 9 0 13l-27 27c-3 4-9 4-12 0l-65-64c-4-3-4-9-1-12 4-4 9-4 13 0z"/>
<glyph glyph-name="team" unicode="&#117;" d="M202 28l194 0c5 0 8 4 8 9 0 1 0 3 0 5 0 4 0 9 0 13 0 14-1 28-2 41-2 19-5 35-8 46-6 17-24 28-58 42-15 6-76 28-86 32l6-8 0 51-4-8c5 3 11 9 17 18 11 15 17 34 17 58l-8-8c28 0 28 60 0 60l0-8 8 0c0-1 4 10 6 15 5 15 7 28 6 42 0 3-1 6-1 9-13 50-145 50-157 0l10 6c-16 4-29 0-35-10-5-8-6-18-4-31 0-6 2-11 3-18 1-2 4-14 4-13l9 0 0 8c-28 0-28-60 0-60l-9 8c0-24 8-44 20-58 7-10 15-15 20-18l-4 8 0-51 5 8c-9-4-19-8-34-13-3-1-13-4-14-4-5-2-9-4-13-5-56-20-81-33-87-52-4-11-7-27-8-46-2-13-2-27-3-41 0-4 0-9 0-13 0-2 0-4 0-5 0-5 4-9 9-9z m0 18l-193 0 8-9c0 1 0 3 0 5 0 4 0 8 0 13 1 13 2 27 3 39 1 19 4 33 7 43 4 11 27 24 76 41 4 1 9 3 14 5 1 0 11 3 14 4 14 5 24 9 34 13 3 1 6 4 6 8l0 51c0 3-2 6-5 7-1 1-2 2-4 3-4 3-8 6-11 10-10 12-16 28-16 48 0 5-3 9-8 9-6 0-6 26 0 26 5 0 8 4 8 9 0 2 0 3-1 8 0 0-1 4-2 4 0 2-1 4-1 6-2 5-3 11-3 15-2 9-1 16 1 20 3 3 8 5 18 3 4-1 9 2 10 6 8 32 115 32 123 0 1-2 1-4 1-7 1-10-1-22-5-35 0 1-7-17-7-20 0-5 4-9 9-9 5 0 5-26 0-26-5 0-9-4-9-9 0-20-5-36-13-48-3-4-6-8-9-10-2-2-3-2-4-3-2-1-4-4-4-7l0-51c0-4 2-7 5-8 10-4 71-26 86-32 29-11 44-21 48-31 3-10 5-24 7-43 1-12 2-26 2-39 0-5 0-9 0-13 0-2 0-4 0-5l9 9z m258-18l43 0c5 0 9 4 9 9 0 1 0 3 0 5 0 4 0 9 0 13-1 14-1 28-3 41-1 19-4 35-8 46-7 21-36 38-95 62-14 5-19 7-53 20l5-8 0 34-5-8c6 3 13 8 21 17 12 14 20 33 20 58l-9-9c28 0 28 60 0 60l0-8 9 0c0-1 4 12 5 17 4 12 7 24 7 35 0 7 0 13-2 18-7 31-55 56-88 34l9-15c23 15 58-3 63-23 1-4 1-8 1-13 0-10-2-20-6-31 0 0-6-19-6-22 0-5 3-9 8-9 6 0 6-26 0-26-5 0-8-4-8-8 0-21-6-36-16-47-3-4-7-7-10-9-2-2-4-3-5-3-3-1-5-4-5-8l0-34c0-3 3-7 6-8 34-13 39-15 53-20 53-21 81-37 85-51 3-10 6-24 7-43 1-12 2-26 3-39 0-5 0-9 0-13 0-2 0-4 0-5l8 9-43 0z"/>
<glyph glyph-name="documents" unicode="&#118;" d="M428 28l-344 0 9-8 6 472-9-9 223 0-6 3 115-114-3 6 0-358z m0-17c5 0 9 4 9 9l0 358c0 2-1 5-3 6l-114 114c-2 2-4 3-7 3l-223 0c-5 0-9-4-9-9l-6-472c0-5 4-9 9-9z m-260 73l186 0c4 0 8 4 8 9 0 5-4 9-8 9l-186 0c-5 0-9-4-9-9 0-5 4-9 9-9z m0 59l186 0c4 0 8 3 8 8 0 5-4 9-8 9l-186 0c-5 0-9-4-9-9 0-5 4-8 9-8z m0 69l186 0c4 0 8 4 8 9 0 5-4 9-8 9l-186 0c-5 0-9-4-9-9 0-5 4-9 9-9z m0 70l186 0c4 0 8 4 8 9 0 5-4 9-8 9l-186 0c-5 0-9-4-9-9 0-5 4-9 9-9z m0 58l93 0c4 0 8 4 8 9 0 5-4 9-8 9l-93 0c-5 0-9-4-9-9 0-5 4-9 9-9z m137 152l0-114c0-5 4-9 8-9l115 0c5 0 9 4 9 9 0 5-4 9-9 9l-115 0 9-9 0 114c0 5-4 9-9 9-4 0-8-4-8-9z"/>
<glyph glyph-name="images" unicode="&#119;" d="M344 194l-64 161c-3 8-13 8-17 1l-55-121 15 2-55 66c-4 5-12 4-15-1l-63-107 16-10 63 107-15-1 55-66c5-5 13-4 16 2l55 121-17 0 63-161z m-194 192c0-14-12-25-26-25-14 0-26 11-26 25 0 14 12 26 26 26 14 0 26-12 26-26z m19 0c0 25-20 45-45 45-24 0-44-20-44-45 0-24 20-44 44-44 25 0 45 20 45 44z m-141-208l386 0 0 19-386 0z m420 165l44-4-8 11-30-328 10 9-331 29-2-18 331-30c5-1 10 3 10 8l31 328c0 5-4 10-9 10l-44 4z m-34-226l-386 0 9-9 0 383-9-10 386 1-9 9 0-383z m0-18c5 0 10 4 10 9l0 383c0 5-5 10-10 10l-386-1c-5 0-9-4-9-9l-1-383c0-5 4-9 10-9z"/>
<glyph glyph-name="preview" unicode="&#120;" d="M485 261c-1-1-2-2-5-5-4-5-8-10-13-15-15-16-31-32-50-46-52-42-106-67-161-67-55 0-109 25-161 67-19 14-35 30-50 46-5 5-9 10-13 15-3 3-4 4-5 5l0-11c1 1 2 3 5 6 3 4 8 9 13 14 15 15 31 29 50 43 51 40 106 63 161 63 55 0 110-23 161-63 19-14 35-28 50-43 5-5 10-10 14-14 2-3 3-5 4-6z m14-10c3 3 3 7 0 11-1 1-3 3-5 5-4 5-9 10-14 15-15 16-33 31-52 46-55 41-113 66-172 66-59 0-117-25-172-66-19-15-37-30-52-46-5-5-10-10-14-15-2-2-4-4-5-5-2-4-3-8 0-11 1-2 3-4 5-7 4-4 9-10 14-15 15-17 33-33 52-48 54-44 113-71 172-71 59 0 118 27 172 71 19 15 37 31 52 48 5 5 10 11 14 15 2 3 4 5 5 7z m-243 36c18 0 32-14 32-31 0-17-14-31-32-31-18 0-32 14-32 31 0 5-4 9-9 9-5 0-9-4-9-9 0-27 23-49 50-49 27 0 50 22 50 49 0 27-23 49-50 49-5 0-9-4-9-9 0-5 4-9 9-9z m72-31c0-40-32-72-72-72-40 0-72 32-72 72 0 40 32 72 72 72 40 0 72-32 72-72z m18 0c0 49-40 89-90 89-50 0-90-40-90-89 0-49 40-89 90-89 50 0 90 40 90 89z"/>
<glyph glyph-name="expand" unicode="&#121;" d="M268 121l0-81 12 12-256 0 12-12 0 432-12-12 256 0-12 12 0-89c0-6 5-12 12-12 7 0 12 6 12 12l0 89c0 7-5 12-12 12l-256 0c-7 0-12-5-12-12l0-432c0-7 5-12 12-12l256 0c7 0 12 5 12 12l0 81c0 7-5 12-12 12-7 0-12-5-12-12z m116 214l96-96-1 17-96-104c-4-5-4-12 1-17 5-4 12-4 17 1l96 104c4 5 4 12-1 16l-96 96c-4 5-12 5-16 0-5-4-5-12 0-17z m-259-91l363 0c7 0 12 5 12 12 0 7-5 12-12 12l-363 0c-7 0-12-5-12-12 0-7 5-12 12-12z"/>
<glyph glyph-name="arrow-dropdown" unicode="&#97;" d="M0 384l512 0-256-256z"/>
<glyph glyph-name="alert" unicode="&#105;" d="M256 26c127 0 230 102 230 227 0 125-103 226-230 226-127 0-230-101-230-226 0-125 103-227 230-227z m0-25c-141 0-255 113-255 252 0 138 114 251 255 251 141 0 255-113 255-251 0-139-114-252-255-252z m-15 355l30 0 0-33-30 0z m0-82l30 0 0-125-30 0z"/>
<glyph glyph-name="like" unicode="&#107;" d="M80 114l64 0 0 192-64 0z m352 176c0 17-14 32-32 32l-101 0 15 73 0 5c0 6-4 13-7 18l-17 17-106-105c-6-7-10-15-10-23l0-160c0-17 15-32 32-32l144 0c13 0 24 8 29 19l48 114c2 3 2 8 2 11l0 31z"/>
<glyph glyph-name="dislike" unicode="&#112;" d="M304 395l-144 0c-13 0-24-8-29-19l-48-114c-3-3-3-6-3-11l0-32c0-17 14-32 32-32l101 0-15-73 0-5c0-7 4-13 7-18l17-17 106 105c6 7 10 15 10 23l0 160c-2 19-16 33-34 33z m64 0l0-192 64 0 0 192z"/>
<glyph glyph-name="arrow-dropdown-1" unicode="&#68;" d="M192 288l128 0-64-64z"/>
<glyph glyph-name="delete" unicode="&#75;" d="M160 144c0-18 14-32 32-32l128 0c18 0 32 14 32 32l0 192-192 0z m208 240l-56 0-16 16-80 0-16-16-56 0 0-32 224 0z"/>
<glyph glyph-name="documents-1" unicode="&#76;" d="M409 47l-316 0 8-8 6 433-8-8 205 0-6 2 105-104-2 5 0-328z m0-16c4 0 8 4 8 8l0 328c0 3-1 5-2 6l-106 105c-1 1-3 2-5 2l-205 0c-4 0-8-4-8-8l-6-433c0-4 4-8 8-8z m-239 67l171 0c4 0 8 4 8 8 0 5-4 8-8 8l-171 0c-4 0-8-3-8-8 0-4 4-8 8-8z m0 53l171 0c4 0 8 4 8 8 0 5-4 8-8 8l-171 0c-4 0-8-3-8-8 0-4 4-8 8-8z m0 64l171 0c4 0 8 4 8 8 0 5-4 8-8 8l-171 0c-4 0-8-3-8-8 0-4 4-8 8-8z m0 64l171 0c4 0 8 4 8 8 0 5-4 8-8 8l-171 0c-4 0-8-3-8-8 0-4 4-8 8-8z m0 54l85 0c5 0 8 3 8 8 0 4-3 8-8 8l-85 0c-4 0-8-4-8-8 0-5 4-8 8-8z m126 139l0-105c0-4 3-8 8-8l105 0c4 0 8 4 8 8 0 5-4 8-8 8l-105 0 8-8 0 105c0 4-4 8-8 8-5 0-8-4-8-8z"/>
<glyph glyph-name="email-1" unicode="&#77;" d="M359 210c-1-2-3-3-5-3-1 0-2 0-3 1l-41 23c-3 2-4 5-2 8 1 3 5 4 8 2l41-23c3-2 4-5 2-8m-105 20c-1 0-2 1-3 1l-101 64c-3 2-3 5-2 8 2 3 6 3 9 2l97-62 97 62c3 1 6 1 8-2 2-3 1-6-2-8l-100-64c-1 0-2-1-3-1m-56 1l-42-23c-1-1-2-1-3-1-2 0-4 1-5 3-1 3 0 6 2 8l42 23c3 2 6 1 8-2 1-3 0-6-2-8m174 121l-236 0c-13 0-24-10-24-23l0-139c0-13 11-23 24-23l236 0c13 0 24 10 24 23l0 139c0 13-11 23-24 23"/>
<glyph glyph-name="help" unicode="&#78;" d="M259 440c-101 0-184-83-184-184 0-101 82-184 184-184 101 0 184 82 184 184 0 101-83 184-184 184z m130-278l-58 57c7 11 10 24 10 37 0 13-3 24-8 35l57 58c20-26 31-58 31-93-2-35-13-67-32-94z m-186 94c0 30 26 56 56 56 31 0 56-26 56-56 0-30-25-56-56-56-30 0-56 24-56 56z m56 160c45 0 85-19 114-48l-56-56c-15 16-35 26-58 26-22 0-43-10-57-24l-55 54c29 29 69 48 112 48z m-128-66l58-57c-7-11-10-24-10-37 0-14 3-27 10-38l-58-58c-19 27-32 59-32 96 0 35 13 67 32 94z m128-254c-43 0-83 18-112 46l56 56c15-14 34-22 56-22 23 0 43 10 58 24l56-56c-29-30-69-48-114-48z"/>
<glyph glyph-name="hamburger" unicode="&#79;" d="M40 240l423 0c9 0 16 7 16 16 0 9-7 16-16 16l-423 0c-9 0-16-7-16-16 0-9 7-16 16-16z m0 144l423 0c9 0 16 7 16 16 0 9-7 16-16 16l-423 0c-9 0-16-7-16-16 0-9 7-16 16-16z m0-288l423 0c9 0 16 7 16 16 0 9-7 16-16 16l-423 0c-9 0-16-7-16-16 0-9 7-16 16-16z"/>
<glyph glyph-name="gplus" unicode="&#80;" d="M260 232c-7 5-21 18-21 25 0 9 2 13 15 24 14 10 23 25 23 42 0 21-9 41-26 48l25 0 18 13-79 0c-36 0-70-28-70-60 0-33 25-60 61-60 2 0 5 0 7 1-2-5-4-10-4-16 0-9 5-16 11-22-4 0-9-1-14-1-44 0-78-29-78-59 0-29 37-48 82-48 50 0 78 30 78 59 0 24-7 38-28 54z m-43 41c-20 0-40 23-43 51-4 28 10 49 31 48 20 0 40-23 43-50 4-28-10-50-31-49z m-8-141c-30 0-52 20-52 44 0 24 27 43 58 43 7 0 14-1 20-3 16-12 28-19 31-33 1-2 1-5 1-8 0-24-15-43-58-43z m136 138l0 32-25 0 0-32-31 0 0-25 31 0 0-32 25 0 0 32 31 0 0 25z"/>
<glyph glyph-name="g-email" unicode="&#81;" d="M256 109l-22 21c-84 75-138 124-138 185 0 50 38 88 88 88 27 0 54-13 72-33 18 20 45 33 72 33 50 0 88-38 88-88 0-61-54-110-136-184z"/>
<glyph glyph-name="g-share" unicode="&#82;" d="M352 195c-13 0-22-5-32-13l-114 66c0 3 2 8 2 11 0 3 0 8-2 11l112 66c8-8 20-13 32-13 28 0 48 21 48 48 0 27-20 48-48 48-27 0-48-21-48-48 0-3 0-8 2-11l-112-66c-8 8-19 13-32 13-27 0-48-21-48-48 0-27 21-48 48-48 13 0 24 5 32 13l114-67c0-3-2-7-2-11 0-26 21-47 46-47 26 0 47 21 47 47 0 25-19 49-45 49z"/>
<glyph glyph-name="fundraise" unicode="&#83;" d="M466 160c-7 18-31 29-50 24l-58-19c-3 14-12 27-32 27l-25 0c-8 0-15 0-26 0-24 18-51 27-80 27l-41 0 0 2c0 6-5 13-13 13l-69 0c-6 0-13-5-13-13l0-125c0-6 5-13 13-13l69 0c6 0 11 5 11 10 8-3 16-7 24-10 22-11 46-22 83-22 40 0 98 14 184 57 31 16 24 36 23 42z m-336-51l-47 0 0 101 45 0 0-101z m304 33c-157-78-204-56-248-35-12 5-21 10-34 15l0 75 43 0c24 0 48-8 69-26 2-1 5-3 8-3 14 0 21 0 30 0l26 0c8 0 8-6 8-8 0-3-2-8-8-8l-96 0c-6 0-13-5-13-13 0-8 5-13 13-13l96 0c11 0 19 5 24 12l72 24c5 1 18-4 19-10 2-5-8-10-9-10z m-168 101c33 0 60 27 60 61 0 34-27 61-60 61-34 0-61-27-61-61 0-34 27-61 61-61z m0 98c20 0 36-16 36-37 0-21-16-37-36-37-21 0-37 16-37 37 0 19 16 37 37 37z m124-15c34 0 61 28 61 61 0 34-27 61-61 61-33 0-60-27-60-61 0-33 27-61 60-61z m0 96c21 0 37-16 37-36 0-21-16-37-37-37-20 0-36 16-36 37 0 20 16 36 36 36z"/>
<glyph glyph-name="field-locator" unicode="&#84;" d="M268 123l0 312c0 7-6 13-13 13-8 0-14-6-14-13l0-312-122 123c-6 5-14 5-19 0-5-5-5-14 0-19l145-145c1-1 3-2 5-3 1-1 3-1 5-1 1 0 3 0 5 1 1 1 3 2 4 3l145 145c6 5 6 14 0 19-5 5-13 5-18 0z"/>
<glyph glyph-name="favourite" unicode="&#85;" d="M384 384l-256 0c-18 0-32-14-32-32l0-192c0-18 14-32 32-32l256 0c18 0 32 14 32 32l0 192c0 18-14 32-32 32z m0-64l-128-80-128 80 0 32 128-80 128 80z"/>
<glyph glyph-name="facebook-alternate" unicode="&#86;" d="M320 315l-49 0 0 33c0 12 8 15 14 15l34 0 0 53-47 0c-53 0-65-40-65-65l0-36-31 0 0-54 31 0 0-155 64 0 0 155 43 0 6 54"/>
<glyph glyph-name="facebook-1" unicode="&#87;" d="M345 384l-174 0c-23 0-43-16-43-39l0-174c0-23 20-43 43-43l107 0c0 34 0 71 0 103-7 0-14 1-20 1 0 11 0 23 0 35 6 0 13 0 20 0 0 11 0 22 0 33 1 9 4 18 11 24 8 8 19 10 30 11 11 0 23 0 34 0 0-12 0-24 0-36-7 0-15 0-22 0-4 0-9-3-10-8 0-8 0-16 0-24 11 0 21 0 32 0-1-12-2-23-4-35-9 0-19-1-28-1 0-32 0-69 0-103l24 0c22 0 39 20 39 43l0 174c0 23-17 39-39 39"/>
<glyph glyph-name="fab" unicode="&#88;" d="M416 272l-134 0 0 150-32 0 0-150-151 0 0-32 151 0 0-150 32 0 0 150 150 0 0 32z"/>
<glyph glyph-name="extras" unicode="&#89;" d="M393 215c0-12-10-23-23-23-13 0-24 11-24 23 0 13 11 24 24 24 13 0 23-11 23-24z m18 0c0 23-18 42-41 42-23 0-42-19-42-42 0-23 19-41 42-41 23 0 41 18 41 41z m-168-137l-182 0 9-9 0 422-9-9 227 0-6 3 97-97-2 6 0-41c0-5 4-9 9-9 5 0 9 4 9 9l0 41c0 2-1 5-3 6l-97 98c-2 2-4 3-7 3l-227 0c-5 0-9-5-9-10l0-422c0-5 4-9 9-9l182 0c5 0 9 4 9 9 0 5-4 9-9 9z m36 413l0-97c0-5 4-9 9-9l98 0c5 0 9 4 9 9 0 5-4 9-9 9l-98 0 10-9 0 97c0 5-4 10-10 10-5 0-9-5-9-10z m146-334l0-136 15 7-65 49c-3 2-8 2-11 0l-65-49 15-7 0 131c0 5-4 9-9 9-5 0-9-4-9-9l0-131c0-8 8-12 14-8l65 49-11 0 65-49c6-4 15 0 15 8l0 136c0 5-4 9-9 9-5 0-10-4-10-9z m24 52c13 16 15 39 4 57-10 18-30 27-51 24l10-6c-7 19-26 32-46 32-21 0-40-13-47-32l10 6c-20 3-41-6-51-24-11-18-9-41 4-57l0 12c-13-16-15-39-4-57 10-18 31-27 51-24l-10 6c7-19 26-32 47-32 20 0 39 13 46 32l-10-6c21-3 41 6 51 24 11 18 9 41-4 57z m-14 12c-3-4-3-8 0-12 8-10 9-24 2-35-6-12-19-18-32-16-4 1-8-2-10-6-5-12-16-20-29-20-14 0-25 8-30 20-2 4-6 7-10 6-13-2-26 4-32 16-7 11-6 25 3 35 2 4 2 8 0 12-9 10-10 24-3 36 6 11 19 17 32 15 4-1 8 2 10 6 5 12 16 20 30 20 13 0 24-8 29-20 2-4 6-7 10-6 13 2 26-4 32-15 7-12 6-26-2-36z"/>
<glyph glyph-name="expand-1" unicode="&#90;" d="M267 163l0-54 8 8-171 0 8-8 0 288-8-8 171 0-8 8 0-59c0-4 3-8 8-8 4 0 8 4 8 8l0 59c0 5-4 8-8 8l-171 0c-4 0-8-3-8-8l0-288c0-4 4-8 8-8l171 0c4 0 8 4 8 8l0 54c0 5-4 8-8 8-5 0-8-3-8-8z m77 143l64-64-1 11-64-69c-3-3-2-8 1-11 3-3 8-3 11 0l64 70c3 3 3 8 0 11l-64 64c-3 3-8 3-11 0-3-3-3-9 0-12z m-173-61l242 0c5 0 8 4 8 8 0 5-3 8-8 8l-242 0c-4 0-8-3-8-8 0-4 4-8 8-8z"/>
<glyph glyph-name="message-1" unicode="&#66;" d="M325 421l-131 0c-74 0-135-61-135-135 0-73 61-134 135-134l4 0 0-53c0-5 4-9 8-11 2 0 4-2 5-2 3 0 7 2 8 4l63 62 43 0c73 0 134 61 134 134 0 74-61 135-134 135z m0-245l-50 0c-3 0-6-2-8-3l-45-45 0 37c0 6-4 13-12 13l-16 0c-61 0-111 49-111 110 0 61 50 110 111 110l131 0c61 0 110-49 110-110 0-61-49-112-110-112z"/>
<glyph glyph-name="alert-1" unicode="&#67;" d="M397 293c-2 5-7 6-11 6l-125 0 32 152c1 5-2 11-7 13-4 2-11 0-14-5l-174-248c-4-3-4-8-2-13 2-3 6-6 11-6l125 0-32-138c-2-4 2-11 6-12 2 0 4-2 5-2 3 0 8 2 10 5l174 235c3 3 3 8 2 13z m-162-187l23 96c1 3 0 8-2 9-2 3-6 5-10 5l-116 0 128 182-23-108c0-4 0-8 3-10 4-2 7-5 10-5l115 0z"/>
<glyph glyph-name="network" unicode="&#69;" d="M256 398c-2 0-5 0-6 0-74-3-132-60-132-134 0-77 61-139 136-139 76 0 138 61 138 137 2 76-61 136-136 136z m102-72c10-14 16-32 18-51l-56 0c0 18-5 35-10 51z m-12 16l-42 0c-6 13-13 26-22 37 25-5 48-17 64-37z m-138-67c2 18 5 35 11 51l74 0c6-16 9-33 11-51z m96-16c-2-17-5-33-10-51l-75 0c-6 18-9 34-9 51z m-50 123c0 0 2 0 2 0 0 0 2 0 2 0 11-12 20-25 27-40l-59 0c8 15 17 28 28 40z m-22-1c-10-11-16-24-22-37l-44 0c16 18 39 30 66 37z m-78-55l49 0c-6-16-9-33-9-51l-58 0c2 19 8 37 18 51z m-18-67l56 0c0-17 3-33 10-51l-53 0c-8 16-13 34-13 51z m22-67l50 0c6-16 16-34 26-50-31 7-58 26-76 50z m98-51c0 0-2 0 0 0-13 17-24 33-30 51l62 0c-8-18-18-34-30-51 0 0-2 0-2 0z m22 1c12 16 20 32 26 50l50 0c-16-24-44-43-76-50z m32 66c5 18 8 34 10 51l58 0c0-17-5-35-13-51z"/>
<glyph glyph-name="invest" unicode="&#70;" d="M480 325c0 81-66 147-147 147-79 0-143-62-147-139-80-2-146-67-146-147 0-82 66-148 147-148 79 0 143 63 147 140 82 1 146 67 146 147z m-291-263c-69 0-123 56-123 124 0 67 54 121 121 123 2-21 10-40 19-58-3 0-4 2-8 2-19 0-32-13-32-32l0-34-11 0c-5 0-8-3-8-8 0-5 3-8 8-8l11 0 0-43c0-5 4-8 8-8l48 0c5 0 8 3 8 8 0 5-3 8-8 8l-40 0 0 35 40 0c5 0 8 3 8 8 0 5-3 8-8 8l-40 0 0 34c0 9 7 16 16 16 10 0 16-7 16-16 0-5 4-8 8-8 5 0 8 3 8 8 23-21 50-35 82-40-3-67-58-119-123-119z m144 140c-69 0-123 56-123 123 0 67 56 123 123 123 67 0 123-56 123-123 0-67-54-123-123-123z m5 179c9 0 16-7 16-16 0-5 3-8 8-8 4 0 8 3 8 8 0 19-13 32-32 32-20 0-32-13-32-32l0-34-10 0c-5 0-8-3-8-8 0-5 3-8 8-8l8 0 0-3c0-16 0-21 0-24l0-16c0-5 3-8 8-8l48 0c5 0 8 3 8 8 0 5-3 8-8 8l-40 0 0 8c0 3 0 6 0 24l0 3 40 0c5 0 8 3 8 8 0 5-3 8-8 8l-40 0 0 34c0 9 6 16 18 16z"/>
<glyph glyph-name="download" unicode="&#71;" d="M379 304l-64 0 0 96-96 0 0-96-64 0 112-112z m-224-144l0-32 224 0 0 32z"/>
<glyph glyph-name="more-1" unicode="&#72;" d="M264 240c13 0 24 11 24 24 0 13-11 24-24 24-13 0-24-11-24-24 0-13 11-24 24-24z m-96 0c13 0 24 11 24 24 0 13-11 24-24 24-13 0-24-11-24-24 0-13 11-24 24-24z m192 0c13 0 24 11 24 24 0 13-11 24-24 24-13 0-24-11-24-24 0-13 11-24 24-24z"/>
<glyph glyph-name="refresh-1" unicode="&#73;" d="M342 270c0 0 0 0 0 0l15 0 28 0 0 109-38-40c-23 28-58 45-95 45-68 0-124-57-124-128 0-71 55-128 122-128 48 0 91 29 111 73l-28 14c-15-33-48-55-83-55-51 0-92 43-92 96 0 53 41 96 92 96 29 0 56-10 73-32l-47-50z"/>
<glyph glyph-name="user" unicode="&#74;" d="M395 106c-6 3-11 4-17 8-15 6-29 14-44 20l0 42c10 8 24 26 26 69 11 6 19 24 19 41 0 10-1 18-6 24-2 4-5 7-8 8 6 15 16 40 9 68-9 38-57 51-96 51-35 0-78-11-92-42-13 0-23-3-29-9-15-18-2-47 6-68-3-1-6-4-8-8-5-6-6-14-6-24 0-16 6-33 17-40 2-43 21-62 32-68l0-42c-22-10-48-19-67-29-6-3-8-9-6-16 1-5 6-6 11-6 2 0 3 0 5 1 21 10 46 21 69 29l4 2c5 1 8 6 8 11l0 56c0 5-3 10-8 11-1 0-24 10-24 59 0 7-4 12-11 12-3 1-8 16-6 27 1 6 3 6 5 6 6 0 12 5 12 13 0 5-1 8-4 16-13 30-13 40-10 43 0 2 5 3 16 0 6-1 13 3 14 10 5 19 36 33 74 33 38 0 69-14 74-33 4-21-4-42-10-55-3-6-5-9-5-14 0-6 5-13 13-13 2 0 3 0 5-6 3-11-3-26-7-27-6 0-12-5-12-13 0-50-18-59-18-59-5-2-8-7-8-12l0-56c0-4 3-9 8-11 18-6 34-14 50-22 6-3 11-7 17-8 7-3 13 0 16 6 2 3-1 11-8 15z"/>
<glyph glyph-name="back-top" unicode="&#48;" d="M411 163c-5 0-8 2-11 5l-139 149-139-149c-7-6-16-6-23 0-6 6-6 16 0 22l149 160c3 4 8 5 11 5l2 0c5 0 8-1 11-5l149-160c6-6 6-16 0-22-2-3-5-5-10-5z"/>
<glyph glyph-name="read" unicode="&#49;" d="M384 352l-128 0-32 32-96 0c-18 0-32-14-32-32l0-192c0-18 14-32 32-32l256 0c18 0 32 14 32 32l0 160c0 18-14 32-32 32z m0-192l-256 0 0 160 256 0z"/>
<glyph glyph-name="preview-s" unicode="&#50;" d="M256 368c-80 0-148-50-176-120 28-70 96-120 176-120 80 0 148 50 176 120-28 70-96 120-176 120z m0-200c-44 0-80 36-80 80 0 44 36 80 80 80 44 0 80-36 80-80 0-44-36-80-80-80z m0 128c-27 0-48-21-48-48 0-27 21-48 48-48 27 0 48 21 48 48 0 27-21 48-48 48z"/>
<glyph glyph-name="preview-dsk" unicode="&#51;" d="M256 344c-49 0-88-39-88-88 0-49 39-88 88-88 49 0 88 39 88 88 0 49-39 88-88 88z m0-160c-40 0-72 32-72 72 0 40 32 72 72 72 40 0 72-32 72-72 0-40-32-72-72-72z m184 75c-30 75-103 125-184 125-81 0-154-50-183-125l-2-3 1-3c30-75 103-125 184-125 81 0 154 50 183 125l2 3z m-184-115c-73 0-140 44-167 112 28 68 94 112 167 112 73 0 139-44 167-112-27-68-94-112-167-112z m0 168c-31 0-56-25-56-56 0-31 25-56 56-56 31 0 56 25 56 56 0 31-25 56-56 56z m0-96c-22 0-40 18-40 40 0 22 18 40 40 40 22 0 40-18 40-40 0-22-18-40-40-40z"/>
<glyph glyph-name="preview-1" unicode="&#52;" d="M456 265c0 0-2-2-4-5-3-4-7-8-12-13-13-14-28-28-44-42-47-37-96-59-145-59-49 0-98 22-144 59-16 14-31 28-45 42-4 5-8 9-12 13-2 3-3 5-4 5l0-10c1 1 2 3 4 5 4 4 8 8 12 13 13 13 28 27 45 39 46 35 95 56 144 56 49 0 98-21 145-56 16-12 31-26 44-39 5-5 9-9 12-13 3-2 4-4 5-5z m13-9c2 3 2 7 0 10-1 1-2 2-5 5-3 4-7 8-12 13-14 14-29 28-46 41-49 37-102 59-155 59-53 0-105-22-154-59-17-13-32-27-46-41-5-5-9-9-13-13-2-3-3-4-4-5-3-3-3-7 0-10 0-1 2-3 4-6 4-4 8-9 13-14 13-15 29-29 46-43 49-39 101-63 154-63 54 0 106 24 155 63 17 14 32 28 46 43 5 5 9 10 13 14 2 3 3 5 4 6z m-218 33c16 0 29-13 29-28 0-16-13-29-29-29-15 0-28 13-28 29 0 4-4 8-8 8-4 0-8-4-8-8 0-25 20-45 44-45 25 0 45 20 45 45 0 24-20 44-45 44-4 0-8-4-8-8 0-5 4-8 8-8z m65-28c0-36-29-65-65-65-35 0-65 29-65 65 0 35 30 64 65 64 36 0 65-29 65-64z m16 0c0 44-36 80-81 80-44 0-81-36-81-80 0-45 37-81 81-81 45 0 81 36 81 81z"/>
<glyph glyph-name="close-l" unicode="&#53;" d="M101 389l277-277 11-12 23 23-12 11-277 277-11 12-23-23z m22-277l277 277 12 11-23 23-11-12-277-277-12-11 23-23z"/>
<glyph glyph-name="close-m" unicode="&#54;" d="M149 341l181-181 11-12 23 23-12 11-181 181-11 12-23-23z m22-181l181 181 12 11-23 23-11-12-181-181-12-11 23-23z"/>
<glyph glyph-name="close-s" unicode="&#55;" d="M203 181l128 128 12 11-23 23-11-12-128-128-12-11 23-23z m-22 128l128-128 11-12 23 23-12 11-128 128-11 12-23-23z"/>
<glyph glyph-name="play-1" unicode="&#56;" d="M420 236c11 5 11 22 0 28l-301 150c-10 6-23-2-23-14l0-300c0-12 13-20 23-15z"/>
<glyph glyph-name="info" unicode="&#57;" d="M249 400c-76 0-137-61-137-137 0-76 61-137 137-137 76 0 137 61 137 137 0 76-61 137-137 137z m-14-123l28 0 0-83-28 0z m0 54l28 0 0-27-28 0z"/>
<glyph glyph-name="images-1" unicode="&#33;" d="M331 207l-54 138c-2 7-11 7-14 1l-48-104 14 2-48 56c-3 5-10 4-13-1l-54-91 14-8 54 91-13-1 47-56c4-4 11-4 14 2l47 103-15 0 55-138z m-165 165c0-12-10-22-22-22-12 0-22 10-22 22 0 12 10 22 22 22 12 0 22-10 22-22z m16 0c0 21-17 38-38 38-21 0-38-17-38-38 0-21 17-38 38-38 21 0 38 17 38 38z m-120-178l330 0 0 16-330 0z m359 141l37-3-7 8-26-279 9 7-283 25-1-16 283-25c4 0 8 3 8 7l26 280c1 4-3 8-7 9l-38 3z m-29-193l-331 0 8-8 1 327-8-8 330 0-8 8 0-327z m0-16c4 0 8 4 8 8l0 327c0 5-4 8-8 8l-330 0c-5 0-8-4-8-8l-1-327c0-4 4-8 8-8z"/>
<glyph glyph-name="unread" unicode="&#34;" d="M224 384l-96 0c-18 0-32-14-32-32l0-192c0-18 14-32 32-32l256 0c18 0 32 14 32 32l0 160c0 18-14 32-32 32l-128 0z"/>
<glyph glyph-name="tag" unicode="&#35;" d="M370 230l-140 140c-1 1-1 1-3 1l-81 0c-2 0-4 0-4-1 0-2-1-4-1-4l0-81c0-2 0-3 1-3l140-140c1-1 1-1 3-1 1 0 3 0 3 1l82 82c1 2 1 2 1 3 0 2-1 3-1 3z m-176 64c-13 0-24 12-24 24 0 13 11 24 24 24 12 0 24-11 24-24 0-12-12-24-24-24z"/>
<glyph glyph-name="tick" unicode="&#36;" d="M235 195l98 98c6 6 6 16 0 22-7 7-17 7-23 0l-97-97c-7-6-7-16 0-23 6-6 16-6 22 0z m-70 48l48-48c6-6 16-6 22 0 7 7 7 17 0 23l-48 48c-6 6-16 6-22 0-7-6-7-16 0-23z"/>
<glyph glyph-name="shortlist" unicode="&#37;" d="M264 196l-61-32 12 68-50 48 68 10 31 62 31-62 68-10-50-48 12-68z"/>
<glyph glyph-name="see-more" unicode="&#38;" d="M177 291l65-73c3-3 8-3 12 0 3 3 3 8 0 11l-65 72c-3 4-8 4-11 1-3-3-4-8-1-11z m130 10l-65-72c-3-3-3-8 0-11 4-3 9-3 12 0l65 73c3 3 2 8-1 11-3 3-8 3-11-1z"/>
<glyph glyph-name="search-1" unicode="&#39;" d="M352 304c0-80-64-144-144-144-80 0-144 64-144 144 0 80 64 144 144 144 80 0 144-64 144-144z m32 0c0 97-79 176-176 176-97 0-176-79-176-176 0-97 79-176 176-176 97 0 176 79 176 176z m-75-139l136-136 22 22-136 136z"/>
<glyph glyph-name="more-2" unicode="&#40;" d="M319 296l-67-76c-2-2-2-5 0-7 3-2 6-2 8 0l67 76c2 2 1 5-1 7-2 2-5 2-7 0z m-134-7l67-76c2-2 5-2 8 0 2 2 2 5 0 7l-67 76c-2 2-5 2-7 0-2-2-3-5-1-7z m71-262c127 0 229 102 229 229 0 127-102 229-229 229-127 0-229-102-229-229 0-127 102-229 229-229z m0 10c-121 0-219 98-219 219 0 121 98 219 219 219 121 0 219-98 219-219 0-121-98-219-219-219z"/>
<glyph glyph-name="location-1" unicode="&#41;" d="M262 258c-21 0-38 17-38 39 0 21 17 38 38 38 20 0 37-17 37-38 0-22-17-39-37-39m0 126c-48 0-86-39-86-87 0-47 78-168 81-173 1-2 3-2 5-2 2 0 3 0 4 2 4 5 82 126 82 173 0 48-39 87-86 87"/>
</font>
</defs>
</svg>
